<?xml version="1.0" standalone="no"?>
<!DOCTYPE svg PUBLIC "-//W3C//DTD SVG 20010904//EN"
 "http://www.w3.org/TR/2001/REC-SVG-20010904/DTD/svg10.dtd">
<svg version="1.0" xmlns="http://www.w3.org/2000/svg"
 width="300.000000pt" height="300.000000pt" viewBox="0 0 300.000000 300.000000"
 preserveAspectRatio="xMidYMid meet">

<g transform="translate(0.000000,300.000000) scale(0.100000,-0.100000)"
fill="#0b0b0b" stroke="none">
<path d="M1355 2994 c-151 -23 -227 -40 -326 -74 -237 -79 -404 -184 -589
-369 -221 -221 -345 -452 -411 -761 -33 -152 -33 -429 0 -580 43 -200 118
-381 227 -546 77 -116 250 -294 367 -377 178 -128 401 -223 617 -263 130 -24
390 -24 520 0 120 22 304 83 407 134 279 141 536 397 672 671 226 453 211 978
-39 1415 -140 245 -378 469 -633 598 -103 51 -288 113 -402 133 -88 16 -350
28 -410 19z m359 -355 c127 -65 168 -183 107 -302 -51 -99 -234 -237 -313
-237 -62 0 -215 95 -271 167 -12 15 -25 30 -29 33 -4 3 -19 31 -33 62 -44 97
-18 178 81 256 53 40 131 53 298 46 96 -3 128 -8 160 -25z m-174 -978 l5 -425
60 -24 c33 -13 64 -27 69 -32 10 -10 -44 -161 -60 -167 -21 -8 -167 60 -199
93 -52 52 -55 81 -55 548 l0 425 38 4 c20 2 60 4 87 3 l50 -1 5 -424z m681
199 c84 -16 173 -63 232 -122 56 -55 106 -145 110 -193 2 -28 0 -29 -80 -45
l-82 -17 -11 33 c-19 55 -64 108 -121 139 -47 25 -65 29 -133 30 l-78 0 -28
78 c-15 43 -23 80 -19 83 34 20 138 27 210 14z m-1230 -30 c78 -24 155 -74
203 -133 40 -49 90 -152 83 -170 -3 -8 -619 -278 -767 -335 -4 -1 -19 25 -35
59 -39 88 -45 201 -16 297 68 225 308 352 532 282z m928 -140 l52 -60 -24 -32
c-48 -64 -61 -100 -60 -168 0 -71 17 -120 59 -169 l26 -31 -52 -60 c-29 -33
-56 -60 -60 -60 -16 0 -79 86 -107 146 -26 54 -28 69 -28 174 0 105 2 120 28
174 27 59 91 146 106 146 4 0 31 -27 60 -60z m-772 -584 c-9 -23 -75 -63 -142
-87 -80 -28 -193 -28 -279 1 -92 30 -94 36 -44 114 23 36 45 66 49 66 3 0 23
-7 42 -15 70 -29 177 -15 233 31 l29 23 59 -59 c39 -38 57 -63 53 -74z"/>
<path d="M771 1656 c-53 -19 -111 -74 -137 -130 -24 -51 -32 -116 -15 -116 5
0 87 33 183 74 95 41 191 81 213 91 l40 16 -25 20 c-69 56 -177 75 -259 45z"/>
</g>
</svg>
